<svg width="20" height="20" viewBox="0 0 20 20" fill="none" xmlns="http://www.w3.org/2000/svg">
<path d="M17.5 8.33398C17.5 14.1673 10 19.1673 10 19.1673C10 19.1673 2.5 14.1673 2.5 8.33398C2.5 6.34486 3.29018 4.43721 4.6967 3.03068C6.10322 1.62416 8.01088 0.833984 10 0.833984C11.9891 0.833984 13.8968 1.62416 15.3033 3.03068C16.7098 4.43721 17.5 6.34486 17.5 8.33398Z" stroke="#A09D96" stroke-width="1.5" stroke-linecap="round" stroke-linejoin="round"/>
<path d="M10 10.834C11.3807 10.834 12.5 9.7147 12.5 8.33398C12.5 6.95327 11.3807 5.83398 10 5.83398C8.61929 5.83398 7.5 6.95327 7.5 8.33398C7.5 9.7147 8.61929 10.834 10 10.834Z" stroke="#A09D96" stroke-width="1.5" stroke-linecap="round" stroke-linejoin="round"/>
</svg>
